<svg width="339" height="39" viewBox="0 0 339 39" fill="none" xmlns="http://www.w3.org/2000/svg">
<path d="M14.272 38.624C11.584 38.624 9.2 38.064 7.12 36.944C5.04 35.792 3.392 33.968 2.176 31.472C0.992 28.944 0.4 25.6 0.4 21.44C0.4 17.76 0.752 14.752 1.456 12.416C2.192 10.08 3.216 8.288 4.528 7.04C5.84 5.76 7.376 4.88 9.136 4.4C10.896 3.888 12.8 3.632 14.848 3.632C15.68 3.632 16.704 3.696 17.92 3.824C19.136 3.92 20.352 4.064 21.568 4.256C22.816 4.416 23.84 4.608 24.64 4.832L23.824 10.976C23.44 10.912 22.848 10.848 22.048 10.784C21.248 10.72 20.384 10.64 19.456 10.544C18.528 10.448 17.664 10.384 16.864 10.352C16.096 10.288 15.52 10.256 15.136 10.256C13.824 10.256 12.784 10.336 12.016 10.496C11.28 10.624 10.736 10.832 10.384 11.12C9.968 11.44 9.6 12 9.28 12.8C8.96 13.568 8.704 14.656 8.512 16.064C8.32 17.472 8.224 19.312 8.224 21.584C8.224 24.4 8.48 26.624 8.992 28.256C9.504 29.856 10.032 30.864 10.576 31.28C10.928 31.536 11.376 31.744 11.92 31.904C12.464 32.064 13.152 32.144 13.984 32.144C15.008 32.144 16.08 32.016 17.2 31.76C18.352 31.504 19.424 31.216 20.416 30.896C21.408 30.544 22.224 30.24 22.864 29.984C23.504 29.728 23.824 29.6 23.824 29.6L25.984 35.312C25.984 35.312 25.696 35.488 25.12 35.84C24.544 36.16 23.728 36.544 22.672 36.992C21.616 37.408 20.368 37.776 18.928 38.096C17.52 38.448 15.968 38.624 14.272 38.624ZM38.7119 38.624C36.5679 38.624 34.9199 38.176 33.7679 37.28C32.6479 36.352 31.8799 35.104 31.4639 33.536C31.0479 31.936 30.8399 30.144 30.8399 28.16V9.776H38.2799V27.44C38.2799 28.816 38.3279 29.792 38.4239 30.368C38.5199 30.944 38.6799 31.344 38.9039 31.568C39.3199 31.952 39.9919 32.144 40.9199 32.144C41.8479 32.144 42.8559 31.936 43.9439 31.52C45.0639 31.104 46.0079 30.64 46.7759 30.128V9.776H54.2159V38H49.4639L48.5519 35.072H48.2639C46.9839 35.84 45.5119 36.624 43.8479 37.424C42.2159 38.224 40.5039 38.624 38.7119 38.624ZM71.536 38.624C70.064 38.624 68.64 38.48 67.264 38.192C65.888 37.904 64.656 37.584 63.568 37.232C62.48 36.88 61.616 36.56 60.976 36.272C60.336 35.984 60.016 35.84 60.016 35.84L61.84 29.984C61.84 29.984 62.16 30.112 62.8 30.368C63.472 30.624 64.336 30.928 65.392 31.28C66.448 31.632 67.552 31.936 68.704 32.192C69.888 32.448 70.976 32.576 71.968 32.576C72.96 32.576 73.664 32.416 74.08 32.096C74.624 31.712 74.896 31.056 74.896 30.128C74.896 29.328 74.64 28.72 74.128 28.304C73.616 27.856 72.928 27.488 72.064 27.2C71.232 26.912 70.288 26.624 69.232 26.336C68.208 26.016 67.168 25.68 66.112 25.328C65.056 24.944 64.08 24.448 63.184 23.84C62.32 23.2 61.616 22.384 61.072 21.392C60.528 20.4 60.256 19.12 60.256 17.552C60.256 15.024 61.104 12.992 62.8 11.456C64.496 9.92 67.216 9.152 70.96 9.152C72.368 9.152 73.728 9.248 75.04 9.44C76.352 9.632 77.52 9.856 78.544 10.112C79.568 10.368 80.368 10.592 80.944 10.784L79.84 16.544C79.84 16.544 79.536 16.48 78.928 16.352C78.32 16.192 77.536 16.016 76.576 15.824C75.616 15.632 74.592 15.472 73.504 15.344C72.416 15.184 71.392 15.104 70.432 15.104C69.632 15.104 69.072 15.152 68.752 15.248C68.432 15.344 68.192 15.456 68.032 15.584C67.904 15.68 67.776 15.84 67.648 16.064C67.552 16.256 67.504 16.528 67.504 16.88C67.504 17.584 67.76 18.16 68.272 18.608C68.784 19.024 69.456 19.376 70.288 19.664C71.152 19.952 72.08 20.24 73.072 20.528C74.096 20.816 75.136 21.136 76.192 21.488C77.28 21.808 78.272 22.272 79.168 22.88C80.064 23.456 80.784 24.256 81.328 25.28C81.872 26.272 82.144 27.584 82.144 29.216C82.144 32.032 81.232 34.304 79.408 36.032C77.584 37.76 74.96 38.624 71.536 38.624ZM96.1653 38.624C94.4693 38.624 93.0133 38.368 91.7973 37.856C90.6133 37.344 89.7013 36.368 89.0613 34.928C88.4533 33.456 88.1493 31.328 88.1493 28.544V16.736H84.8853V12.08L88.4853 11.408L89.5893 4.736H95.6853V11.168H101.445V16.88H95.5893V28.736C95.5893 29.824 95.6533 30.624 95.7812 31.136C95.9413 31.648 96.1653 31.968 96.4532 32.096C96.7733 32.224 97.1733 32.288 97.6533 32.288C98.1333 32.288 98.6613 32.272 99.2373 32.24C99.8133 32.176 100.309 32.128 100.725 32.096C101.141 32.064 101.349 32.048 101.349 32.048V38.096C101.349 38.096 100.837 38.176 99.8133 38.336C98.7893 38.528 97.5733 38.624 96.1653 38.624ZM117.736 38.624C114.632 38.624 112.168 38.032 110.344 36.848C108.52 35.632 107.224 33.92 106.456 31.712C105.688 29.504 105.304 26.896 105.304 23.888C105.304 20.848 105.688 18.24 106.456 16.064C107.224 13.856 108.52 12.16 110.344 10.976C112.168 9.76 114.632 9.152 117.736 9.152C120.872 9.152 123.336 9.76 125.128 10.976C126.92 12.16 128.184 13.856 128.92 16.064C129.688 18.24 130.072 20.848 130.072 23.888C130.072 26.896 129.688 29.504 128.92 31.712C128.184 33.92 126.92 35.632 125.128 36.848C123.336 38.032 120.872 38.624 117.736 38.624ZM117.736 32.96C118.984 32.96 119.944 32.72 120.616 32.24C121.32 31.728 121.8 30.816 122.056 29.504C122.344 28.192 122.488 26.32 122.488 23.888C122.488 21.424 122.344 19.536 122.056 18.224C121.768 16.912 121.272 16.016 120.568 15.536C119.896 15.056 118.952 14.816 117.736 14.816C116.52 14.816 115.544 15.056 114.808 15.536C114.104 16.016 113.608 16.912 113.32 18.224C113.032 19.536 112.888 21.424 112.888 23.888C112.888 26.32 113.032 28.192 113.32 29.504C113.608 30.816 114.104 31.728 114.808 32.24C115.512 32.72 116.488 32.96 117.736 32.96ZM136.183 38V9.776H140.935L141.799 12.608H142.087C142.855 12.128 143.735 11.616 144.727 11.072C145.751 10.528 146.855 10.064 148.039 9.68C149.255 9.264 150.519 9.056 151.831 9.056C153.431 9.056 154.727 9.392 155.719 10.064C156.711 10.704 157.479 11.584 158.023 12.704C159.303 11.872 160.727 11.056 162.295 10.256C163.895 9.456 165.655 9.056 167.575 9.056C169.559 9.056 171.095 9.52 172.183 10.448C173.271 11.344 174.023 12.576 174.439 14.144C174.887 15.712 175.111 17.504 175.111 19.52V38H167.575V20.816C167.575 19.504 167.543 18.528 167.479 17.888C167.415 17.216 167.223 16.688 166.903 16.304C166.487 15.792 165.815 15.536 164.887 15.536C164.023 15.536 163.047 15.76 161.959 16.208C160.871 16.624 159.959 17.088 159.223 17.6C159.255 17.984 159.271 18.384 159.271 18.8C159.303 19.184 159.319 19.584 159.319 20V38H151.879V20.816C151.879 19.504 151.847 18.512 151.783 17.84C151.719 17.168 151.527 16.64 151.207 16.256C150.983 15.968 150.695 15.776 150.343 15.68C149.991 15.584 149.639 15.536 149.287 15.536C148.423 15.536 147.447 15.744 146.359 16.16C145.271 16.544 144.359 17.008 143.623 17.552V38H136.183ZM181.833 5.936V0.751999H189.657V5.936H181.833ZM182.025 38V9.776H189.465V38H182.025ZM193.716 38V33.008L207.156 15.632V15.392L194.388 15.872V9.776H216.18V14.768L202.884 32.192V32.48L216.516 31.904V38H193.716ZM228.125 38.624C226.589 38.624 225.197 38.272 223.949 37.568C222.733 36.832 221.757 35.776 221.021 34.4C220.285 33.024 219.917 31.36 219.917 29.408C219.917 27.072 220.445 25.248 221.501 23.936C222.557 22.592 224.045 21.632 225.965 21.056C227.885 20.48 230.157 20.192 232.781 20.192H236.381C236.381 18.816 236.317 17.84 236.189 17.264C236.061 16.688 235.917 16.272 235.757 16.016C235.629 15.792 235.373 15.584 234.989 15.392C234.637 15.2 233.901 15.104 232.781 15.104C231.629 15.104 230.429 15.2 229.181 15.392C227.965 15.584 226.829 15.808 225.773 16.064C224.717 16.32 223.853 16.544 223.181 16.736C222.509 16.928 222.173 17.024 222.173 17.024L220.637 11.648C220.637 11.648 220.957 11.52 221.597 11.264C222.269 11.008 223.165 10.72 224.285 10.4C225.437 10.08 226.733 9.792 228.173 9.536C229.645 9.28 231.197 9.152 232.829 9.152C235.581 9.152 237.757 9.584 239.357 10.448C240.957 11.28 242.093 12.496 242.765 14.096C243.469 15.664 243.821 17.552 243.821 19.76V38H239.117L238.157 34.88H237.869C237.869 34.88 237.581 35.072 237.005 35.456C236.461 35.84 235.725 36.272 234.797 36.752C233.869 37.232 232.829 37.664 231.677 38.048C230.525 38.432 229.341 38.624 228.125 38.624ZM230.285 32.528C231.181 32.528 232.093 32.384 233.021 32.096C233.981 31.776 234.781 31.472 235.421 31.184C236.061 30.864 236.381 30.704 236.381 30.704V25.712C236.381 25.712 235.997 25.68 235.229 25.616C234.461 25.52 233.469 25.472 232.253 25.472C230.141 25.472 228.829 25.712 228.317 26.192C228.093 26.384 227.901 26.72 227.741 27.2C227.581 27.648 227.501 28.288 227.501 29.12C227.501 30.304 227.709 31.168 228.125 31.712C228.573 32.256 229.293 32.528 230.285 32.528ZM259.712 38.624C258.016 38.624 256.56 38.368 255.344 37.856C254.16 37.344 253.248 36.368 252.608 34.928C252 33.456 251.696 31.328 251.696 28.544V16.736H248.432V12.08L252.032 11.408L253.136 4.736H259.232V11.168H264.992V16.88H259.136V28.736C259.136 29.824 259.2 30.624 259.328 31.136C259.488 31.648 259.712 31.968 260 32.096C260.32 32.224 260.72 32.288 261.2 32.288C261.68 32.288 262.208 32.272 262.784 32.24C263.36 32.176 263.856 32.128 264.272 32.096C264.688 32.064 264.896 32.048 264.896 32.048V38.096C264.896 38.096 264.384 38.176 263.36 38.336C262.336 38.528 261.12 38.624 259.712 38.624ZM270.099 5.936V0.751999H277.923V5.936H270.099ZM270.291 38V9.776H277.731V38H270.291ZM296.189 38.624C293.085 38.624 290.621 38.032 288.797 36.848C286.973 35.632 285.677 33.92 284.909 31.712C284.141 29.504 283.757 26.896 283.757 23.888C283.757 20.848 284.141 18.24 284.909 16.064C285.677 13.856 286.973 12.16 288.797 10.976C290.621 9.76 293.085 9.152 296.189 9.152C299.325 9.152 301.789 9.76 303.581 10.976C305.373 12.16 306.637 13.856 307.373 16.064C308.141 18.24 308.525 20.848 308.525 23.888C308.525 26.896 308.141 29.504 307.373 31.712C306.637 33.92 305.373 35.632 303.581 36.848C301.789 38.032 299.325 38.624 296.189 38.624ZM296.189 32.96C297.437 32.96 298.397 32.72 299.069 32.24C299.773 31.728 300.253 30.816 300.509 29.504C300.797 28.192 300.941 26.32 300.941 23.888C300.941 21.424 300.797 19.536 300.509 18.224C300.221 16.912 299.725 16.016 299.021 15.536C298.349 15.056 297.405 14.816 296.189 14.816C294.973 14.816 293.997 15.056 293.261 15.536C292.557 16.016 292.061 16.912 291.773 18.224C291.485 19.536 291.341 21.424 291.341 23.888C291.341 26.32 291.485 28.192 291.773 29.504C292.061 30.816 292.557 31.728 293.261 32.24C293.965 32.72 294.941 32.96 296.189 32.96ZM314.636 38V9.776H319.388L320.252 12.608H320.54C321.852 11.84 323.356 11.072 325.052 10.304C326.78 9.536 328.7 9.152 330.812 9.152C332.796 9.152 334.3 9.6 335.324 10.496C336.348 11.392 337.052 12.624 337.436 14.192C337.82 15.76 338.012 17.536 338.012 19.52V38H330.572V20.912C330.572 19.6 330.54 18.608 330.476 17.936C330.412 17.264 330.22 16.736 329.9 16.352C329.516 15.872 328.876 15.632 327.98 15.632C327.052 15.632 326.028 15.84 324.908 16.256C323.788 16.64 322.844 17.104 322.076 17.648V38H314.636Z" fill="black"/>
</svg>
