<svg width="83" height="56" viewBox="0 0 83 56" fill="none" xmlns="http://www.w3.org/2000/svg">
<path d="M19.838 5.8C20.0287 5.8 20.1933 5.86933 20.332 6.008C20.4707 6.14667 20.54 6.31133 20.54 6.502V10.454C20.54 10.6447 20.4707 10.8093 20.332 10.948C20.1933 11.0867 20.0287 11.156 19.838 11.156H9.62V12.82H18.148C18.3387 12.82 18.5033 12.8893 18.642 13.028C18.7807 13.1667 18.85 13.3313 18.85 13.522V17.448C18.85 17.6387 18.7807 17.8033 18.642 17.942C18.5033 18.0807 18.3387 18.15 18.148 18.15H9.62V23.298C9.62 23.4887 9.55067 23.6533 9.412 23.792C9.27333 23.9307 9.10867 24 8.918 24H3.302C3.11133 24 2.94667 23.9307 2.808 23.792C2.66933 23.6533 2.6 23.4887 2.6 23.298V6.502C2.6 6.31133 2.66933 6.14667 2.808 6.008C2.94667 5.86933 3.11133 5.8 3.302 5.8H19.838ZM41.6158 18.67C41.8065 18.67 41.9712 18.7393 42.1098 18.878C42.2485 19.0167 42.3178 19.1813 42.3178 19.372V23.298C42.3178 23.4887 42.2485 23.6533 42.1098 23.792C41.9712 23.9307 41.8065 24 41.6158 24H26.4318C26.2412 24 26.0765 23.9307 25.9378 23.792C25.7992 23.6533 25.7298 23.4887 25.7298 23.298V6.502C25.7298 6.31133 25.7992 6.14667 25.9378 6.008C26.0765 5.86933 26.2412 5.8 26.4318 5.8H32.0478C32.2385 5.8 32.4032 5.86933 32.5418 6.008C32.6805 6.14667 32.7498 6.31133 32.7498 6.502V18.67H41.6158ZM55.2297 24.26C52.3177 24.26 50.0037 23.6273 48.2877 22.362C46.589 21.0967 45.7397 19.1207 45.7397 16.434V6.502C45.7397 6.31133 45.809 6.14667 45.9477 6.008C46.0864 5.86933 46.251 5.8 46.4417 5.8H51.8757C52.0664 5.8 52.231 5.86933 52.3697 6.008C52.5084 6.14667 52.5777 6.31133 52.5777 6.502V16.85C52.5777 17.5607 52.8117 18.1067 53.2797 18.488C53.765 18.8693 54.415 19.06 55.2297 19.06C56.0444 19.06 56.6857 18.8693 57.1537 18.488C57.639 18.1067 57.8817 17.5607 57.8817 16.85V6.502C57.8817 6.31133 57.951 6.14667 58.0897 6.008C58.2284 5.86933 58.393 5.8 58.5837 5.8H64.0177C64.2084 5.8 64.373 5.86933 64.5117 6.008C64.6504 6.14667 64.7197 6.31133 64.7197 6.502V16.434C64.7197 19.1207 63.8617 21.0967 62.1457 22.362C60.447 23.6273 58.1417 24.26 55.2297 24.26ZM19.838 37.8C20.0287 37.8 20.1933 37.8693 20.332 38.008C20.4707 38.1467 20.54 38.3113 20.54 38.502V42.454C20.54 42.6447 20.4707 42.8093 20.332 42.948C20.1933 43.0867 20.0287 43.156 19.838 43.156H9.62V44.82H18.148C18.3387 44.82 18.5033 44.8893 18.642 45.028C18.7807 45.1667 18.85 45.3313 18.85 45.522V49.448C18.85 49.6387 18.7807 49.8033 18.642 49.942C18.5033 50.0807 18.3387 50.15 18.148 50.15H9.62V55.298C9.62 55.4887 9.55067 55.6533 9.412 55.792C9.27333 55.9307 9.10867 56 8.918 56H3.302C3.11133 56 2.94667 55.9307 2.808 55.792C2.66933 55.6533 2.6 55.4887 2.6 55.298V38.502C2.6 38.3113 2.66933 38.1467 2.808 38.008C2.94667 37.8693 3.11133 37.8 3.302 37.8H19.838ZM41.9278 37.8C42.1185 37.8 42.2832 37.8693 42.4218 38.008C42.5605 38.1467 42.6298 38.3113 42.6298 38.502V42.454C42.6298 42.6447 42.5605 42.8093 42.4218 42.948C42.2832 43.0867 42.1185 43.156 41.9278 43.156H31.7098V44.82H40.2378C40.4285 44.82 40.5932 44.8893 40.7318 45.028C40.8705 45.1667 40.9398 45.3313 40.9398 45.522V49.448C40.9398 49.6387 40.8705 49.8033 40.7318 49.942C40.5932 50.0807 40.4285 50.15 40.2378 50.15H31.7098V55.298C31.7098 55.4887 31.6405 55.6533 31.5018 55.792C31.3632 55.9307 31.1985 56 31.0078 56H25.3918C25.2012 56 25.0365 55.9307 24.8978 55.792C24.7592 55.6533 24.6898 55.4887 24.6898 55.298V38.502C24.6898 38.3113 24.7592 38.1467 24.8978 38.008C25.0365 37.8693 25.2012 37.8 25.3918 37.8H41.9278ZM64.7457 37.8C64.9017 37.8 65.0317 37.8607 65.1357 37.982C65.257 38.086 65.3177 38.2073 65.3177 38.346C65.3177 38.45 65.2917 38.554 65.2397 38.658L58.6877 49.5V55.298C58.6877 55.4887 58.6184 55.6533 58.4797 55.792C58.341 55.9307 58.1764 56 57.9857 56H52.4477C52.257 56 52.0924 55.9307 51.9537 55.792C51.815 55.6533 51.7457 55.4887 51.7457 55.298V49.5L45.2197 38.658C45.1677 38.554 45.1417 38.4587 45.1417 38.372C45.1417 38.216 45.1937 38.086 45.2977 37.982C45.419 37.8607 45.5577 37.8 45.7137 37.8H51.1997C51.685 37.8 52.0404 37.9993 52.2657 38.398L55.2037 43.546L58.2197 38.45C58.4797 38.0167 58.8437 37.8 59.3117 37.8H64.7457Z" fill="black"/>
<circle cx="75" cy="48" r="8" fill="#BFA784"/>
</svg>
